Easter fun and adventures with Fifi and the Flowertots gang!

Fifi Forget-Me-Not is full of energy and creativity, always smiling and looking for excitement! Fifi lives in Forget-Me-Not cottage and is always busy with her friends Bumble, Primrose and Violet; out gardening or cooking or keeping a watchful eye on the naughty Stingo and Slugsy who are always looking for mischief and getting into trouble! But with so much to remember all of the time, Fifi often forgets things which leads to all kinds of wonderful adventures! Enjoy all of the fun, mayhem and laughter in 10 great new stories.

Episodes Comprise:

1. Sculptures
2. Count on Fifi
3. Primrose's Purfume Song
4. Flowerpot Milkshake
5. Sing-A-Long Song
6. Flying Lessons
7. Don't Go Changing
8. Fifi Follows The Clues
9. Poppy's Day Off

Format : MPEG-4
Format profile : Base Media / Version 2
Codec ID : mp42
File size : 1 000 MiB
Duration : 1h 40mn
Overall bit rate : 1 386 Kbps
Encoded date : UTC 2010-02-13 19:31:45
Tagged date : UTC 2010-02-13 23:25:17
Writing application : HandBrake 0.9.3 2008112300

Video
ID : 1
Format : AVC
Format/Info : Advanced Video Codec
Format profile : Main@L4.0
Format settings, CABAC : Yes
Format settings, ReFrames : 3 frames
Codec ID : avc1
Codec ID/Info : Advanced Video Coding
Duration : 1h 40mn
Bit rate mode : Variable
Bit rate : 1 222 Kbps
Width : 702 pixels
Height : 574 pixels
Display aspect ratio : 16:9
Frame rate mode : Variable
Frame rate : 25.000 fps
Minimum frame rate : 12.500 fps
Maximum frame rate : 145.455 fps
Resolution : 8 bits
Colorimetry : 4:2:0
Scan type : Progressive
Bits/(Pixel*Frame) : 0.121
Stream size : 882 MiB (88%)
Writing library : x264 core 65

Language : English
Encoded date : UTC 2010-02-13 19:31:45
Tagged date : UTC 2010-02-13 23:25:17
Color primaries : BT.601-6 525, BT.1358 525, BT.1700 NTSC, SMPTE 170M
Transfer characteristics : BT.709-5, BT.1361
Matrix coefficients : BT.601-6 525, BT.1358 525, BT.1700 NTSC, SMPTE 170M

Audio
ID : 2
Format : AAC
Format/Info : Advanced Audio Codec
Format version : Version 4
Format profile : LC
Format settings, SBR : No
Codec ID : 40
Duration : 1h 40mn
Bit rate mode : Variable
Bit rate : 160 Kbps
Maximum bit rate : 204 Kbps
Channel(s) : 2 channels
Channel positions : L R
Sampling rate : 48.0 KHz
Stream size : 115 MiB (12%)
Language : English
Encoded date : UTC 2010-02-13 19:31:45